<svg width="40" height="40" viewBox="0 0 40 40" fill="none" xmlns="http://www.w3.org/2000/svg">
<path d="M7.14355 37.1422V2.85645H24.2864L33.5171 12.0872V37.1422H7.14355Z" stroke="#0C3F22" stroke-width="3.57143" stroke-linecap="round" stroke-linejoin="round"/>
<path d="M32.1423 12.0874H24.2852V4.28516" stroke="#0C3F22" stroke-width="3.57143" stroke-linecap="round" stroke-linejoin="round"/>
<path d="M22.7495 18.2549H19.4873C19.1678 18.2528 18.8511 18.3138 18.5554 18.4345C18.2597 18.5551 17.9907 18.7332 17.7641 18.9582C17.5374 19.1834 17.3575 19.4511 17.2348 19.7459C17.1121 20.0408 17.0488 20.3571 17.0488 20.6765C17.0534 21.3202 17.3123 21.9361 17.769 22.3898C18.2258 22.8434 18.8434 23.0979 19.4873 23.0979H21.1688C21.8125 23.0979 22.4303 23.3525 22.8871 23.8062C23.3438 24.2598 23.6027 24.8757 23.6071 25.5195C23.6211 25.8538 23.5661 26.1875 23.4455 26.4997C23.3251 26.8118 23.1415 27.0958 22.9065 27.3339C22.6715 27.5722 22.39 27.7594 22.0794 27.8841C21.769 28.0088 21.4361 28.0682 21.1015 28.0587H17.5703" stroke="#0C3F22" stroke-width="3.57143" stroke-linecap="round" stroke-linejoin="round"/>
<path d="M20.2949 18.1863V16.3701" stroke="#0C3F22" stroke-width="3.57143" stroke-linecap="round" stroke-linejoin="round"/>
<path d="M20.2949 29.9595V28.2275" stroke="#0C3F22" stroke-width="3.57143" stroke-linecap="round" stroke-linejoin="round"/>
</svg>
