<svg width="40" height="40" viewBox="0 0 40 40" fill="none" xmlns="http://www.w3.org/2000/svg">
<path d="M33.5601 19.0407L32.5449 18.7579C31.8235 18.5579 31.5504 17.6807 32.029 17.1055L32.778 16.2048C34.0566 14.6683 33.9545 12.4104 32.5421 10.9952C31.0304 9.48075 28.5752 9.48075 27.0635 10.9952C25.6511 12.4104 25.549 14.6683 26.8276 16.2048L27.5766 17.1055C28.0552 17.6807 27.7807 18.5579 27.0607 18.7579L26.0483 19.0393C25.2704 19.2559 24.5697 19.6214 23.9504 20.0821C23.9407 20.0931 23.9352 20.1069 23.9256 20.1179L23.1766 21.0186C22.698 21.5938 22.9725 22.471 23.6925 22.671L24.7076 22.9538C27.1145 23.6228 28.8732 25.6131 29.3021 28.0076H38.2621V25.2255C38.2621 22.3414 36.3394 19.8117 33.5614 19.0393L33.5601 19.0407Z" stroke="#0C3F22" stroke-width="3.44828" stroke-linecap="round" stroke-linejoin="round"/>
<path d="M17.6312 22.8452L18.2032 22.674C18.6736 22.543 18.6784 21.9037 18.6825 21.4678C17.8508 20.2154 16.8474 19.4671 15.3218 19.0423L14.3094 18.7609C13.5894 18.5609 13.3149 17.6837 13.7935 17.1085L14.5425 16.2078C15.8212 14.6713 15.7191 12.4133 14.3067 10.9982C12.7949 9.48368 10.3397 9.48368 8.828 10.9982C7.41558 12.4133 7.31351 14.6713 8.59213 16.2078L9.3411 17.1085C9.81972 17.6837 9.54524 18.5609 8.82524 18.7609L7.81007 19.0437C5.03213 19.8161 3.10938 22.3458 3.10938 25.2299V28.012H12.6018C13.0294 25.6175 14.7867 23.6271 17.1936 22.9582L17.6312 22.8452Z" stroke="#0C3F22" stroke-width="3.44828" stroke-linecap="round" stroke-linejoin="round"/>
<path d="M18.7209 21.0196L17.9719 20.1189C16.6933 18.5824 16.7953 16.3244 18.2078 14.9093C19.7195 13.3948 22.1747 13.3948 23.6864 14.9093C25.0988 16.3244 25.2009 18.5824 23.9222 20.1189L23.1733 21.0196C22.6947 21.5948 22.9691 22.472 23.6905 22.672L24.7057 22.9548C27.4836 23.7272 29.4064 26.2568 29.4064 29.141V31.9217H12.4961V29.1355C12.4961 26.2541 14.416 23.7258 17.1926 22.9534L18.205 22.672C18.9264 22.472 19.1995 21.5948 18.7209 21.0196Z" stroke="#0C3F22" stroke-width="3.44828" stroke-linecap="round" stroke-linejoin="round"/>
</svg>
